PathFileType	4	(X/Y/Z)	16_1_25_p0_0-134_filt_butterworth.trc
DataRate	CameraRate	NumFrames	NumMarkers	Units	OrigDataRate	OrigDataStartFrame	OrigNumFrames
57.0	57.0	6	27	m	57.0	16	134
Frame#	Time	RHip			RKnee			RAnkle			RBigToe			RSmallToe			RHeel			LHip			LKnee			LAnkle			LBigToe			LSmallToe			LHeel			Neck			Head			Nose			RShoulder			RElbow			RWrist			RThumb			RIndex			RPinky			LShoulder			LElbow			LWrist			LThumb			LIndex			LPinky			
		X1	Y1	Z1	X2	Y2	Z2	X3	Y3	Z3	X4	Y4	Z4	X5	Y5	Z5	X6	Y6	Z6	X7	Y7	Z7	X8	Y8	Z8	X9	Y9	Z9	X10	Y10	Z10	X11	Y11	Z11	X12	Y12	Z12	X13	Y13	Z13	X14	Y14	Z14	X15	Y15	Z15	X16	Y16	Z16	X17	Y17	Z17	X18	Y18	Z18	X19	Y19	Z19	X20	Y20	Z20	X21	Y21	Z21	X22	Y22	Z22	X23	Y23	Z23	X24	Y24	Z24	X25	Y25	Z25	X26	Y26	Z26	X27	Y27	Z27	
16	0.2807017543859649	0.2867016161641623	0.5043103326868069	0.5017929824374736	0.2953272826535037	0.6224869389619019	0.928870553295964	0.2928159867138398	0.6837514657396536	1.350538680382287	0.2482773254917398	0.5177609097240283	1.4008789563223514	0.3251111524796101	0.545007070233264	1.4058910727707612	0.25215899400305986	0.7935762831957531	1.4251738401618557	0.08148776963612385	0.5150181407057937	0.5113427799881668	0.06578798017062155	0.6193863555406993	0.9309961009074565	0.07138771185929625	0.6864686393377287	1.338445981482411	0.06696920126662355	0.49263908424994474	1.3764411734997792	0.011211861322654284	0.5381297057113117	1.3724886523482334	0.09565160508669923	0.7516199456999471	1.405401707518166	0.17617956915119448	0.41534569065112226	-0.06114526957393607	0.16977835246616835	0.35435579142136253	-0.30684651467155893	0.1635421767410704	0.25689558859754497	-0.1735080403893491	0.35807386677427505	0.402690068719691	0.026977422483734435	0.37310246232511834	0.3895449741299562	0.30698587010293527	0.2153041929632059	0.2965335690854659	0.48772373704978333	0.14791293635659397	0.3435994208942016	0.6094262540394408	0.15326516231512893	0.346038291347097	0.6260362970752226	0.17115074301841782	0.3161161184897233	0.6131637638569922	0.015064946780318078	0.48404482911413194	0.014757406843189148	-0.03134290400410518	0.42313696424833275	0.30104162587033717	0.11588195285593812	0.29571265240452516	0.47921249828724205	0.19785010651492155	0.28795111137656276	0.5588321087654402	0.1986622003904166	0.2868251468206888	0.5796912309673955	0.1296454376750185	0.286803817857174	0.6115748805989922
17	0.2982456140350877	0.2874646321428564	0.5002844566214653	0.5025106312314902	0.2950936912542879	0.6218289465876757	0.9271227093636781	0.29280021394689865	0.6836880258240295	1.3505311138586529	0.2484049567802216	0.5179212112482817	1.401227663714741	0.32500289937092164	0.5452704778457342	1.4057813937011476	0.25215561118252244	0.7934947937409791	1.425077960747433	0.07847473030690784	0.5091157452585143	0.5093820231199804	0.06578506408173451	0.6193160823060186	0.9309685765031404	0.07137284625754375	0.6863118959960564	1.3379125514926726	0.0671092150975919	0.49288926561664825	1.3764944277671518	0.011244127395530327	0.5380672318634686	1.3724540403196759	0.09556911270322926	0.7519206926366486	1.4054670193363141	0.17597363398556468	0.414934427438797	-0.0636311083694094	0.16980200798031234	0.3543384798413239	-0.306819647502782	0.16299229994209538	0.2564095808126285	-0.1758737042042098	0.3581165632160759	0.40282628101457973	0.026972544654020963	0.37313291711321295	0.38974501659635424	0.30743250223855667	0.21530755699177673	0.2964859501800112	0.4877477209136899	0.14565282543850247	0.3454045686744723	0.6106061285559855	0.1534617184077163	0.34619415835009243	0.6268432351392159	0.17102135161154672	0.3159108939645599	0.6141477099445235	0.014980679942592808	0.48375096049784644	0.013869912127077569	-0.031377040616765994	0.4230997211729675	0.3010751674401599	0.11587507062814173	0.2956633219420928	0.4792270251282729	0.19795401914057878	0.28786651580740075	0.5591436369642241	0.1986052943498332	0.2867203542569861	0.5794026948324218	0.12895583012932535	0.28335678122932983	0.6108259557522667
18	0.3157894736842105	0.2884544124354475	0.4948096396887192	0.5024018766017486	0.295060892175949	0.6215767333061978	0.9264530091048013	0.2927966983727242	0.6836608026438409	1.3505059842837537	0.24843187099114683	0.5178942180955691	1.401068870084237	0.32487748098941105	0.5456575773013549	1.4056751379301122	0.2521813213493337	0.7934494663492808	1.4249632032918265	0.07620890944824452	0.5048329954031456	0.5082193827354944	0.06577966158519429	0.6192608615268014	0.9309332128017763	0.07119515544840455	0.6856648525356324	1.3369398920257651	0.06726593525438122	0.492927055432388	1.3761467978264337	0.011263211840921092	0.5380579606118134	1.3724655719393724	0.09541205192316017	0.7513103427179352	1.4058638356797422	0.17580034390204552	0.4146625334796217	-0.06548494367218222	0.16979914900903822	0.35437948307990214	-0.30674161865819516	0.16290248221543696	0.25614159849543183	-0.17764766132679255	0.358095312303992	0.40282125848825145	0.02696920052713271	0.3730608578506652	0.3897713881074981	0.3072496353356542	0.21532645541120932	0.29647579683028635	0.487747658008698	0.14402743316639297	0.34573472309407366	0.6111759649840769	0.15348590023500416	0.34621674746668407	0.6270272172198659	0.17080625450405337	0.31586813932853663	0.615266787094929	0.014934365860530884	0.48364816880711936	0.013567022113206657	-0.031397767361207286	0.4230883171611869	0.3010997189337396	0.11534164881541431	0.2953249662002134	0.4792422703807199	0.1981154415463588	0.2878162387645712	0.5596805617667122	0.19862765752847059	0.28644959999096037	0.5786532489811475	0.1278940590805667	0.2787772731307466	0.6098222563117826
19	0.3333333333333333	0.28918671250433703	0.4904187884098189	0.5009982846018711	0.29509543046230946	0.6214842521247947	0.9263210872061832	0.2928017671452667	0.6836831726253579	1.3504686206494938	0.24838377128794265	0.517744909289126	1.4008867576299613	0.32486124499974856	0.5460107010605473	1.4056350045097554	0.25217778168322535	0.7934907361964533	1.425035191896915	0.07542565589382588	0.5033169680069224	0.5081893916430628	0.06577678905449615	0.6192378412326386	0.9309100778989678	0.07097225050771719	0.6847403941893077	1.3357245327881004	0.0671805934265616	0.491586451627581	1.3749364482930253	0.011254980210771365	0.538128568941027	1.3725061611143623	0.09534628563563749	0.7501472963510418	1.4070460158697067	0.175716241942226	0.41457250720816047	-0.06616866587209996	0.16979401244161918	0.3543880604046343	-0.30671132229317427	0.1629525340781439	0.25606901000793253	-0.17829559427355618	0.358057882795917	0.402765304324777	0.02696729190543286	0.37253654191621866	0.3886235703427946	0.30608026433655033	0.21534916592178835	0.2964770214566634	0.4877073203512245	0.14321421140708265	0.34549231845408246	0.6111861245909312	0.1535334078288304	0.3463016608138905	0.626788664602956	0.1705637200788412	0.31610885382769416	0.6160191196746585	0.014916814636216965	0.48366502330903394	0.013595333667438729	-0.031395214749724794	0.42310463004954424	0.30109474477336357	0.11411835594973194	0.2946336039379421	0.47922091695814817	0.19815084305680608	0.28807123636693666	0.560070865657009	0.19858417919095858	0.286488413122409	0.5782721665912589	0.12700510517781585	0.27534812760337846	0.6091881940055088
20	0.3508771929824561	0.2894748150271671	0.4884104436410805	0.49936698377672845	0.29500797636803283	0.6212269293899726	0.9258328363625316	0.2928120537272008	0.6837422117472731	1.350441939111773	0.2481592921914893	0.5174549926038488	1.400853127261817	0.32504060192668477	0.5462846972614531	1.405740838318659	0.2520340605850759	0.7936714600915086	1.4257786517986024	0.07548944396191781	0.5034260574804138	0.5084052345200967	0.06576178358125753	0.6192293585936657	0.9309063264252413	0.07079329123884832	0.6840557975498519	1.3347048771432228	0.06651298177753859	0.48796608788484974	1.3729858636449501	0.011217376612389997	0.5382492171111483	1.372533399309773	0.09570609086760858	0.7494956122281753	1.4087988678786596	0.17569178718001652	0.4145848122005412	-0.06615723666358356	0.16978469710647115	0.3543774755784871	-0.3070282521086565	0.16298635028586728	0.2561073235135531	-0.17827108295331331	0.35803220180272294	0.402722434758257	0.02696647274869462	0.3713287656622051	0.3854881446756506	0.30435232847059546	0.21536467739757198	0.2964606500293296	0.48763240494610394	0.14295212802799456	0.34541067692487837	0.611135655120159	0.15361602474678382	0.3464653890158178	0.6263639487594994	0.17046985587262428	0.3169663930206335	0.616315492078232	0.014911582945955848	0.4837116767908927	0.013640173628752863	-0.03138403400594572	0.42312991639605746	0.3010636529345525	0.11254847707375779	0.2938171317657804	0.47916284113986923	0.19779473315329887	0.289547724014954	0.5604885370118385	0.1981756845057825	0.28785897589023435	0.578788507475501	0.1266297243829954	0.2738882031106235	0.6090722833324956
21	0.3684210526315789	0.2895063013539308	0.48813459568864526	0.49861659491956306	0.2946955058958356	0.6207661972694104	0.9247169215339475	0.29282434509755056	0.6838163589704911	1.3504442947326079	0.2476972273524738	0.51724279004148	1.4009166446814603	0.32533199837758586	0.5465056295873214	1.405976178133957	0.25172167324970807	0.7939657718325266	1.4272759015754477	0.0756720257874553	0.50383270926131	0.5082389236895607	0.06573066847285151	0.6192148128603787	0.9309160558972008	0.0706400973231264	0.6839263696375404	1.3342713488980562	0.06539247407702153	0.4831768229926253	1.3711428289878962	0.011168716281461556	0.5383225464832984	1.3725146314814174	0.09670868733830025	0.7508034015674468	1.4103002032177654	0.17568768163518916	0.41461777065261707	-0.06601812228250827	0.16975715579278858	0.35436809984224016	-0.30794480016305376	0.16298265731689238	0.25617793620258716	-0.1781312333489812	0.3580188400552896	0.4027191410669053	0.026966334532119753	0.36978365119358	0.3812835800579688	0.3028683519277866	0.21536765921469908	0.2964185901806215	0.4875520509326273	0.14307832493574626	0.3457469771703567	0.6112719549120482	0.1536708449977706	0.3465737477400146	0.6260363260280074	0.17090288470154158	0.3182887339741244	0.6163399604954829	0.014909408251322292	0.4837464230286466	0.013594100270873875	-0.031380600067892755	0.4231399232854132	0.30102261306936295	0.11141817009839874	0.2933409242009584	0.4791094130570702	0.1970329494683345	0.2924324570218664	0.5611151565808179	0.19735732064959557	0.2907815283605492	0.5800438283529666	0.1267349494474853	0.27332176514642736	0.6090260951428926
